<svg id="Capa_1" data-name="Capa 1" xmlns="http://www.w3.org/2000/svg" viewBox="0 0 150 150"><defs><style>.cls-1{fill:#eb1074;}</style></defs><path class="cls-1" d="M27.54,63.72a46.85,46.85,0,0,1,93-8c1.77,10.25-.07,20-4.16,29.37-4.27,9.83-10.4,18.46-17.4,26.49a161.45,161.45,0,0,1-22.89,21.54c-1.39,1.09-2,1.13-3.25.14C59.26,122.59,47.21,110.48,38,95.75,33.21,88.11,29.61,80,28.14,71A43.38,43.38,0,0,1,27.54,63.72Zm11.71-.17a35.15,35.15,0,1,0,35.36-35A35.18,35.18,0,0,0,39.25,63.55Z"/><path class="cls-1" d="M74.38,77.31H53.64c-2.06,0-2.67-.61-2.67-2.7,0-3.53,0-7.07,0-10.61a5.73,5.73,0,0,1,3.6-5.7,1.49,1.49,0,0,0,.9-1.16Q56.73,52,58,46.86a5.81,5.81,0,0,1,6-4.69q10.36,0,20.74,0a5.81,5.81,0,0,1,6,4.72Q92.05,52,93.29,57.05a1.74,1.74,0,0,0,1.07,1.31,5.66,5.66,0,0,1,3.46,5.43c0,3.7,0,7.4,0,11.1,0,1.74-.7,2.42-2.45,2.42Zm0-19.52c4.68,0,9.35,0,14,0,.84,0,1-.21.82-1-.77-2.94-1.48-5.9-2.24-8.85a2.08,2.08,0,0,0-2.43-1.86H64.21A2.08,2.08,0,0,0,61.78,48c-.76,2.95-1.46,5.91-2.24,8.85-.21.83,0,1,.84,1C65.05,57.77,69.73,57.79,74.4,57.79ZM62.64,69.49c.69,0,1.39.05,2.08,0a1.93,1.93,0,0,0,0-3.86c-1.34-.06-2.69-.06-4,0a1.89,1.89,0,0,0-1.85,1.89,1.93,1.93,0,0,0,1.9,2C61.34,69.53,62,69.5,62.64,69.49Zm23.36,0h2.2A2,2,0,0,0,90,67.54a1.9,1.9,0,0,0-1.84-1.92c-1.38-.06-2.77-.06-4.14,0a1.87,1.87,0,0,0-1.81,1.93,1.91,1.91,0,0,0,1.83,1.92C84.7,69.54,85.35,69.49,86,69.49Z"/><path class="cls-1" d="M60.8,81.22c1.63,0,3.25,0,4.88,0,.95,0,1,.33.75,1.07a3.91,3.91,0,0,1-3.58,2.84c-1.42,0-2.84,0-4.27,0a3.93,3.93,0,0,1-3.6-3c-.18-.67-.08-1,.7-.94C57.38,81.25,59.09,81.22,60.8,81.22Z"/><path class="cls-1" d="M88.05,81.22c1.71,0,3.42,0,5.12,0,.73,0,.8.26.66.87a3.93,3.93,0,0,1-3.56,3c-1.46.07-2.93.06-4.39,0a3.91,3.91,0,0,1-3.54-2.88c-.2-.68-.18-1,.71-1C84.72,81.26,86.39,81.22,88.05,81.22Z"/></svg>