<svg id="Capa_1" data-name="Capa 1" xmlns="http://www.w3.org/2000/svg" viewBox="0 0 65 65"><defs><style>.cls-1{fill:#606060;}</style></defs><path class="cls-1" d="M32.54,52.73H6.75a2.92,2.92,0,0,1-3-2.19,2.52,2.52,0,0,1-.09-.73V17.5c0-.17-.09-.42.12-.5s.28.14.4.25L15.82,27.87c4.3,3.92,8.58,7.86,12.9,11.76a5.6,5.6,0,0,0,7.59,0c3-2.68,5.92-5.39,8.88-8.09L60.84,17.23c.11-.11.23-.33.4-.22s.09.35.09.53V49.62a2.91,2.91,0,0,1-3.12,3.1Z"/><path class="cls-1" d="M32.5,12.3H56.87c.23,0,.57-.13.67.1s-.23.39-.4.54q-7.85,7.2-15.71,14.38c-2.82,2.58-5.64,5.15-8.44,7.74-.34.31-.55.37-.93,0Q20,24,7.86,13c-.17-.15-.51-.29-.4-.54s.44-.1.67-.1Z"/></svg>