<svg id="Capa_1" data-name="Capa 1" xmlns="http://www.w3.org/2000/svg" viewBox="0 0 150 150"><defs><style>.cls-1{fill:#eb1074;}</style></defs><path class="cls-1" d="M88.31,10.81a51.5,51.5,0,0,1,7.34,1.64,30.84,30.84,0,1,1-14.36-1.34c.55-.09,1.15.05,1.65-.3ZM74.43,50.65a9.68,9.68,0,0,0,6.55,9A1.35,1.35,0,0,1,82.11,61a3.61,3.61,0,0,0,7.22-.1,1.15,1.15,0,0,1,1-1.25,9.06,9.06,0,0,0,4.64-3.21c3.49-4.46,2.55-10.54-2.19-14.08-3.29-2.46-6.6-4.89-9.89-7.34a2.29,2.29,0,0,1-1-2.65,2.34,2.34,0,0,1,2.4-1.71c.89,0,1.79,0,2.68,0,1.8,0,2.58.76,2.8,2.55a3.68,3.68,0,0,0,3.93,3.47A3.75,3.75,0,0,0,97,32.36a9.49,9.49,0,0,0-6.76-8.54c-.68-.24-.89-.54-.87-1.2a3.24,3.24,0,0,0-.77-2.14,3.61,3.61,0,0,0-3.81-1.29,3.73,3.73,0,0,0-2.69,3.28c-.07.54.06,1.06-.74,1.31a9.26,9.26,0,0,0-6.83,8.07c-.49,3.89,1.11,7,4.25,9.27s6.4,4.74,9.6,7.11a2.49,2.49,0,0,1,1.22,2.91c-.34,1.12-1.2,1.66-2.66,1.68H84.73c-2,0-2.74-.64-3-2.69a3.63,3.63,0,0,0-3.88-3.25A3.67,3.67,0,0,0,74.43,50.65Z"/><path class="cls-1" d="M32.22,135.91a6.11,6.11,0,0,1-2.66-2.71Q21.31,118.82,13,104.45c-1.54-2.66-1.1-4.33,1.54-5.86l15.93-9.21c2.38-1.38,4.13-.92,5.5,1.47q8.51,14.73,17,29.48c1.33,2.31.87,4.11-1.43,5.44q-8.79,5.08-17.62,10.14Z"/><path class="cls-1" d="M74.88,116.87c-4.8,0-9.59,0-14.39,0a1.62,1.62,0,0,1-1.62-.94Q52,103.89,45,91.86A1.62,1.62,0,0,1,45,90,25.22,25.22,0,0,1,63.58,77.54c7.59-1.15,14.19,1.22,19.72,6.53a2,2,0,0,0,1.52.57c4.39,0,8.78,0,13.17,0A4.87,4.87,0,1,1,98,94.36c-6.1,0-12.2,0-18.29,0a3.64,3.64,0,0,0-3.6,5,3.51,3.51,0,0,0,3.41,2.33c6.06,0,12.11,0,18.17,0A12.71,12.71,0,0,0,105.07,99Q116,91.09,126.9,83.22A5.13,5.13,0,1,1,133,91.44q-13.35,9.74-26.77,19.37a32,32,0,0,1-19.91,6.07C82.52,116.79,78.7,116.87,74.88,116.87Z"/></svg>