<svg id="Capa_1" data-name="Capa 1" xmlns="http://www.w3.org/2000/svg" viewBox="0 0 150 150"><defs><style>.cls-1{fill:#eb1074;}</style></defs><path class="cls-1" d="M16.32,75.2a36.07,36.07,0,0,1,2-6.66,25.75,25.75,0,0,1,6.06-8.24c1.16-1.09,2.16-2.34,3.24-3.52a13.23,13.23,0,0,1-4.06-2.1,7.56,7.56,0,0,1-2.19-2.61,3.47,3.47,0,0,1,1.44-4.83,12.37,12.37,0,0,1,8.53-1.36A3.58,3.58,0,0,1,34.23,49c.08.44.14.88.22,1.35.49-.13.72-.51,1-.79,3.06-2.93,6.1-5.89,9.17-8.82a14.74,14.74,0,0,1,10.45-4.21q19.94,0,39.87,0a14.63,14.63,0,0,1,10.44,4.23c3.34,3.19,6.65,6.4,10.11,9.73.08-.43.14-.7.19-1,.4-2.48,1.47-3.6,4-3.81A12.81,12.81,0,0,1,126.86,47c2.39,1.26,2.92,3.53,1.38,5.78a10.06,10.06,0,0,1-5,3.67l-1.4.49a14.18,14.18,0,0,1,1.33,1c2.5,2.51,5.29,4.74,7.11,7.88a23.16,23.16,0,0,1,3.38,11.85q0,6.87,0,13.74a13.82,13.82,0,0,1-3.33,9.39,2,2,0,0,0-.44,1.36c0,1.91.12,3.82-.09,5.72a6.1,6.1,0,0,1-5.31,5.35,55.34,55.34,0,0,1-8.92.06c-3.77-.25-6-2.64-6.09-6.4,0-1-.27-1.25-1.27-1.25q-33.23,0-66.46,0c-1,0-1.25.22-1.28,1.24-.09,3.77-2.31,6.16-6.08,6.4a62.94,62.94,0,0,1-8.24,0c-3.79-.25-6-2.72-6.09-6.53,0-1.53,0-3.06,0-4.58,0-.38.08-.78-.21-1.1a15.3,15.3,0,0,1-3.54-7.56ZM35.1,58l.28.32H114.7a2.12,2.12,0,0,0-.75-.94q-6.09-5.91-12.18-11.8a9.91,9.91,0,0,0-7.12-2.89H55.36a9.94,9.94,0,0,0-7.13,2.88q-6.09,5.89-12.18,11.79A6.31,6.31,0,0,1,35.1,58Zm40,18.47H66c-5.54,0-11.07,0-16.61,0-1.05,0-1.29.28-1.2,1.28a14.5,14.5,0,0,0,1.27,5.08c1.3,2.7,3.09,4.86,6.44,4.86q19.13,0,38.26,0a5.78,5.78,0,0,0,4.07-1.54,11.79,11.79,0,0,0,3.59-8c.16-1.81.35-1.61-1.46-1.61ZM75,92.34c-7.9,0-15.8,0-23.7,0-.87,0-1.11.18-1,1.09a6.81,6.81,0,0,0,7.11,5.66c6.87,0,13.74,0,20.61,0,5.08,0,10.15,0,15.23,0a6.63,6.63,0,0,0,6.31-5.49c.19-1,0-1.23-1-1.22C90.73,92.36,82.87,92.34,75,92.34Zm-43.13-11c1.26,0,2.52.05,3.77,0a18.94,18.94,0,0,0,5.18-.83c2-.68,2.51-2,1.31-3.77a9.25,9.25,0,0,0-1.41-1.65,33.34,33.34,0,0,0-11.07-6.72,5.87,5.87,0,0,0-6.53,1.43,6.43,6.43,0,0,0-1.62,7.06,6.15,6.15,0,0,0,5.23,4.36A35.24,35.24,0,0,0,31.88,81.32Zm86.48.06c1.44-.07,3.12.05,4.8-.17a6.16,6.16,0,0,0,5.33-4.39,6.4,6.4,0,0,0-1.63-7,5.93,5.93,0,0,0-6.64-1.39A34.26,34.26,0,0,0,111,73.57a12,12,0,0,0-3.39,3.53,2,2,0,0,0,1.05,3.16,7.17,7.17,0,0,0,1.18.41A33.5,33.5,0,0,0,118.36,81.38ZM45.82,98.94c0-.09,0-.18,0-.22l-7.65-8.83a1.11,1.11,0,0,0-.92-.34H26c-.35,0-.69,0-.9.35-.91,1.59-1.44,3.25-.49,5A7.94,7.94,0,0,0,31.45,99c4.49.25,9,.06,13.52,0C45.25,99.07,45.57,99.17,45.82,98.94Zm58.36.15c4.48,0,8.9-.06,13.33,0a9.82,9.82,0,0,0,6.23-2.2,4.8,4.8,0,0,0,1.45-6.5,1.37,1.37,0,0,0-1.41-.87c-3.59,0-7.18,0-10.77,0a1.62,1.62,0,0,0-1.38.61c-2.34,2.72-4.71,5.41-7.06,8.12A.93.93,0,0,0,104.18,99.09Z"/></svg>